<?xml version="1.0" encoding="UTF-8" standalone="no"?>
<!-- Created with Inkscape (http://www.inkscape.org/) -->

<svg
   xmlns:dc="http://purl.org/dc/elements/1.1/"
   xmlns:cc="http://creativecommons.org/ns#"
   xmlns:rdf="http://www.w3.org/1999/02/22-rdf-syntax-ns#"
   xmlns:svg="http://www.w3.org/2000/svg"
   xmlns="http://www.w3.org/2000/svg"
   xmlns:sodipodi="http://sodipodi.sourceforge.net/DTD/sodipodi-0.dtd"
   xmlns:inkscape="http://www.inkscape.org/namespaces/inkscape"
   id="svg8"
   version="1.1"
   viewBox="0 0 86.999997 61"
   height="61mm"
   width="87mm"
   inkscape:version="0.92.4 (5da689c313, 2019-01-14)"
   sodipodi:docname="logo_green.svg">
  <defs
     id="defs2" />
  <sodipodi:namedview
     id="base"
     pagecolor="#ffffff"
     bordercolor="#666666"
     borderopacity="1.0"
     inkscape:pageopacity="0.0"
     inkscape:pageshadow="2"
     inkscape:zoom="0.5"
     inkscape:cx="-70"
     inkscape:cy="560"
     inkscape:document-units="mm"
     inkscape:current-layer="layer1"
     showgrid="false"
     inkscape:window-width="1920"
     inkscape:window-height="1001"
     inkscape:window-x="-9"
     inkscape:window-y="-9"
     inkscape:window-maximized="1" />
  <metadata
     id="metadata5">
    <rdf:RDF>
      <cc:Work
         rdf:about="">
        <dc:format>image/svg+xml</dc:format>
        <dc:type
           rdf:resource="http://purl.org/dc/dcmitype/StillImage" />
        <dc:title></dc:title>
      </cc:Work>
    </rdf:RDF>
  </metadata>
  <g
     inkscape:label="Layer 1"
     inkscape:groupmode="layer"
     id="layer1"
     transform="translate(0,-236)">
    <path
       style="fill:#3d9c51;fill-opacity:0.84577116;stroke:#4dcba2;stroke-width:1.32291667;stroke-miterlimit:4;stroke-dasharray:none;stroke-opacity:1"
       d="m 40.253883,297.48773 c -0.548352,-0.0462 -1.192088,-0.19133 -1.691322,-0.38141 -1.915915,-0.72944 -2.806322,-1.87246 -2.338032,-3.00135 0.08628,-0.208 0.264187,-0.48276 0.416149,-0.6427 0.271585,-0.28583 0.548259,-0.44793 1.553691,-0.91023 0.555269,-0.25532 0.713813,-0.33978 0.948262,-0.50513 0.326178,-0.23006 0.490766,-0.41625 0.643519,-0.72793 0.289224,-0.59013 0.330588,-1.26449 0.156729,-2.55521 -0.245237,-1.82066 -0.457069,-4.46135 -0.562958,-7.01791 -0.02805,-0.67798 -0.08782,-2.95716 -0.08874,-3.38565 l -3.4e-4,-0.17687 -0.346377,-0.059 c -1.163666,-0.19827 -2.545419,-0.53287 -3.757413,-0.90987 l -0.490227,-0.1525 -1.321831,1.05139 c -0.727006,0.57827 -1.346807,1.07786 -1.37733,1.1102 -0.105187,0.11147 -0.0766,0.19647 0.165572,0.49221 0.50724,0.61947 0.738668,1.15126 0.776131,1.7834 0.02067,0.34923 -0.0147,0.611 -0.123067,0.90994 -0.424653,1.17153 -1.832473,1.90554 -3.952208,2.06059 -0.425193,0.0311 -1.451433,0.0135 -1.856239,-0.0318 -0.960666,-0.10757 -1.861655,-0.32113 -2.489186,-0.59001 -1.035194,-0.44356 -1.760832,-1.15864 -2.018589,-1.98922 -0.07621,-0.24557 -0.07724,-0.80843 -0.0018,-1.0547 0.177772,-0.58136 0.541114,-1.05968 1.128675,-1.48584 0.494386,-0.35859 0.950008,-0.57167 1.617853,-0.7566 0.570432,-0.15796 1.242635,-0.26525 2.04023,-0.32564 0.424483,-0.0321 0.657854,-0.0187 1.323136,0.0762 0.435447,0.0621 0.601423,0.0764 0.903812,0.0781 0.325662,0.002 0.384736,-0.003 0.488951,-0.0424 0.333136,-0.12495 0.662669,-0.43521 1.007529,-0.94861 0.114083,-0.16985 0.37745,-0.55017 0.585253,-0.84517 0.207803,-0.29499 0.37782,-0.54743 0.37782,-0.56099 0,-0.0135 -0.136682,-0.0905 -0.303742,-0.17091 -0.386183,-0.18596 -1.00661,-0.52315 -1.444616,-0.78512 -0.4167,-0.24923 -1.385126,-0.92296 -1.701325,-1.18362 -0.127757,-0.10532 -0.251514,-0.19149 -0.275004,-0.19149 -0.159189,0 -4.522898,0.84651 -7.165504,1.39002 -3.321316,0.68311 -7.851194,1.63652 -7.961118,1.6756 -0.134328,0.0477 -0.224324,0.12564 -0.25818,0.22349 -0.01423,0.0412 -0.041,0.21001 -0.05935,0.3751 -0.160261,1.43923 -1.27683,2.69415 -2.8913746,3.24965 -0.3455334,0.11887 -0.6452815,0.19152 -1.0482431,0.25402 -0.2430992,0.0377 -0.3842735,0.0447 -0.9240458,0.0455 -0.679934,7.8e-4 -0.9803375,-0.0265 -1.5575438,-0.14263 -1.6730435,-0.33664 -3.2917457,-1.16632 -4.2631163,-2.1851 -0.5292016,-0.55502 -0.7733371,-1.07771 -0.8074042,-1.7286 -0.047669,-0.91078 0.3837933,-1.71507 1.2644547,-2.35712 1.2737075,-0.9286 3.1247853,-1.31592 5.0029258,-1.0468 0.5866527,0.0841 1.3060763,0.25771 2.0006215,0.48292 0.4033068,0.13077 0.5523938,0.20581 1.0138248,0.51029 0.441497,0.29134 0.660895,0.40478 0.924872,0.47823 0.146263,0.0407 0.221618,0.0471 0.540376,0.0462 0.421795,-0.002 0.655278,-0.0408 1.214963,-0.20572 1.079345,-0.3181 4.932709,-1.97819 7.734258,-3.33205 1.699545,-0.8213 3.919278,-1.97005 3.899876,-2.01824 -0.0069,-0.0171 -0.08629,-0.21004 -0.176471,-0.42879 -0.524651,-1.27268 -0.762315,-2.56318 -0.719751,-3.90824 l 0.01833,-0.57965 -3.814975,-0.46578 c -2.874666,-0.35099 -3.873405,-0.46568 -4.052043,-0.46531 -0.401719,7.8e-4 -0.50006,0.057 -0.977503,0.55846 -0.184301,0.19356 -0.434404,0.43812 -0.555789,0.54348 -1.461096,1.2681 -3.42094,2.0916 -5.4834523,2.30407 -1.9311354,0.19895 -3.6958258,-0.15799 -5.2810232,-1.06816 -0.3731349,-0.21424 -0.999154,-0.66032 -1.3059882,-0.93062 -1.2198048,-1.07451 -2.02235401,-2.41741 -2.25169023,-3.76772 -0.0683188,-0.40225 -0.0472587,-1.14368 0.041695,-1.46983 0.26780098,-0.98169 0.93856953,-1.86361 1.96026443,-2.57737 1.3771961,-0.96211 3.1978498,-1.47359 5.2598866,-1.47766 1.8948028,-0.004 3.4752049,0.38372 4.9635619,1.21688 0.289898,0.16229 1.035886,0.67354 1.347124,0.92324 0.368344,0.2955 0.887585,0.76854 1.006006,0.91647 0.153356,0.19158 0.24837,0.36239 0.53377,0.9596 0.448694,0.93889 0.716343,1.24071 1.232111,1.38937 0.645732,0.18613 1.506488,0.20618 3.363365,0.0784 0.407458,-0.028 0.967524,-0.0609 1.244596,-0.0728 0.487322,-0.0212 3.22092,-0.15169 3.705671,-0.17696 l 0.23859,-0.0125 0.143499,-0.24173 c 0.996783,-1.67913 2.687056,-3.25612 4.905906,-4.57707 0.154837,-0.0922 0.285979,-0.17688 0.291426,-0.18822 0.0053,-0.0114 -0.256194,-0.33967 -0.581441,-0.7296 -0.325247,-0.38992 -1.248485,-1.5008 -2.051631,-2.46862 -3.493577,-4.20981 -6.581281,-7.86065 -7.061406,-8.34926 -0.383875,-0.39066 -0.875461,-0.59975 -2.125562,-0.90412 -1.224878,-0.29822 -1.69465,-0.48491 -2.25301,-0.89538 -0.715746,-0.52616 -1.062644,-1.14673 -0.974335,-1.74302 0.03385,-0.22856 0.08535,-0.41 0.235463,-0.82946 0.399734,-1.11703 0.948724,-1.72047 1.932594,-2.12427 0.914295,-0.37525 2.203346,-0.5157 3.564614,-0.38836 1.422941,0.13309 2.572564,0.59032 3.207052,1.27553 0.4474,0.48315 0.658487,1.15301 0.52762,1.6743 -0.07061,0.28125 -0.166849,0.46178 -0.578079,1.08437 -0.142896,0.21634 -0.295965,0.46322 -0.340157,0.5486 -0.328315,0.63443 -0.247152,1.16612 0.295461,1.93562 0.360619,0.51141 0.740436,0.89412 1.910715,1.92527 2.43854,2.14863 5.417362,4.98751 8.073854,7.69455 l 0.440518,0.4489 0.1698,-0.0598 c 0.09339,-0.0329 0.361299,-0.11734 0.595362,-0.18757 1.751942,-0.52569 3.644648,-0.90061 5.381896,-1.06608 0.216037,-0.0206 0.405819,-0.043 0.421743,-0.0499 0.01769,-0.008 0.04293,-0.50796 0.06493,-1.28615 0.03543,-1.25313 0.03502,-1.27479 -0.02243,-1.34463 -0.06229,-0.0757 -0.06702,-0.0776 -0.901534,-0.35756 -1.716417,-0.57579 -2.838122,-1.55297 -3.022757,-2.63328 -0.03701,-0.21657 -0.02343,-0.40995 0.04708,-0.67161 0.320327,-1.18812 2.12411,-2.31793 4.342854,-2.72017 1.628582,-0.29525 3.240298,-0.046 4.491044,0.69469 0.726544,0.43023 1.228795,1.04718 1.42116,1.74571 0.07017,0.2548 0.06995,0.7619 -3.4e-4,1.01178 -0.143206,0.50839 -0.429812,0.91849 -0.972736,1.39188 -0.261857,0.22832 -0.876656,0.64884 -1.113975,0.76196 -0.109479,0.0522 -0.449549,0.1736 -0.755715,0.2698 -0.834051,0.2621 -1.01728,0.35122 -1.15145,0.56003 -0.05587,0.087 -0.06619,0.13819 -0.06447,0.32089 0.0023,0.25417 0.06366,0.47783 0.272663,0.99535 0.08011,0.19834 0.209413,0.54372 0.287338,0.76751 l 0.14169,0.4069 0.298377,0.0134 c 1.188768,0.0534 2.38451,0.18307 3.365427,0.3648 1.31698,0.24399 2.756542,0.66564 3.837477,1.12398 l 0.118537,0.0503 0.577849,-0.34171 c 0.808372,-0.47804 0.882027,-0.52602 3.324512,-2.16569 1.663034,-1.11641 2.199173,-1.48813 2.248006,-1.55862 0.08393,-0.12111 0.06326,-0.21842 -0.09457,-0.44596 -0.440317,-0.63465 -0.67911,-1.18175 -0.780758,-1.78887 -0.218774,-1.30652 0.391504,-2.54976 1.617594,-3.29536 0.800042,-0.48652 1.78407,-0.77987 3.123323,-0.93109 0.513642,-0.058 1.95066,-0.0512 2.533618,0.012 1.7369,0.18824 3.20269,0.60012 4.257535,1.19633 0.963135,0.54437 1.670211,1.34138 1.934878,2.18095 0.143521,0.45525 0.156224,1.06713 0.03071,1.48019 -0.358532,1.18015 -1.520803,2.20989 -3.09687,2.7437 -1.009296,0.34184 -2.277305,0.52022 -3.733762,0.52525 -0.63908,0.002 -0.655133,2.4e-4 -1.65945,-0.19504 -0.836659,-0.16273 -1.063429,-0.1924 -1.393397,-0.18233 -0.216646,0.007 -0.300945,0.0191 -0.430692,0.0637 -0.485902,0.16707 -0.916257,0.53833 -1.613713,1.39211 -0.17672,0.21633 -0.427687,0.51444 -0.557713,0.66246 -0.130018,0.14801 -0.502544,0.57654 -0.827833,0.95229 -0.32529,0.37573 -0.748358,0.8555 -0.940147,1.06614 -0.191784,0.21064 -0.429945,0.4889 -0.529234,0.61834 l -0.180532,0.23536 0.203292,0.15798 c 0.963502,0.74875 2.083926,1.91861 2.816773,2.94104 l 0.233997,0.32645 0.27611,-0.0368 c 0.283398,-0.0378 0.994716,-0.10303 2.143001,-0.19654 1.465598,-0.11936 5.783756,-0.82124 10.75678,-1.74845 2.784543,-0.51917 5.062411,-0.95908 5.23699,-1.01141 0.502664,-0.15064 0.854785,-0.40623 1.443661,-1.04789 0.483092,-0.52639 0.804183,-0.78021 1.235471,-0.97661 1.158539,-0.52757 2.722857,-0.45729 4.123209,0.18524 0.95373,0.43762 1.756337,1.08952 2.156346,1.75148 0.333208,0.55142 0.369222,1.1709 0.101379,1.74351 -0.319273,0.68253 -1.051318,1.23325 -2.031686,1.52844 -0.570154,0.17168 -1.033058,0.23722 -1.671517,0.23671 -0.510089,-4.6e-4 -0.859234,-0.0406 -1.348307,-0.15509 -0.36747,-0.0861 -1.034194,-0.31829 -1.407573,-0.49032 -0.339234,-0.15629 -0.461255,-0.23882 -0.912349,-0.61708 -0.465375,-0.39024 -0.60416,-0.45385 -0.98418,-0.45114 -0.21203,0.002 -0.308146,0.0151 -0.60748,0.0857 -0.195574,0.0462 -0.502283,0.13228 -0.681561,0.19135 -0.531392,0.17511 -2.674147,0.81887 -3.388907,1.01815 -1.78054,0.49644 -4.039109,1.06377 -7.693857,1.93267 -3.484233,0.82834 -5.055725,1.20798 -5.086608,1.22882 -0.01063,0.007 0.03233,0.17142 0.09546,0.36499 0.307308,0.94198 0.495234,1.93998 0.555467,2.9499 l 0.02038,0.34146 0.19262,0.0483 c 0.184107,0.0461 0.695814,0.15624 3.631666,0.78149 1.4492,0.30864 1.527304,0.31876 1.708401,0.22111 0.05813,-0.0313 0.185279,-0.12214 0.282707,-0.20185 0.2248,-0.18392 0.70983,-0.51088 0.940941,-0.63428 0.730853,-0.39026 1.60085,-0.66315 2.437918,-0.7647 0.432811,-0.0525 1.11585,-0.0571 1.493515,-0.01 0.522128,0.065 1.002015,0.19715 1.44047,0.3965 0.323854,0.14725 0.373158,0.17552 0.71292,0.40863 0.90216,0.61898 1.51703,1.54131 1.692613,2.53899 0.04611,0.26174 0.03804,0.80005 -0.01576,1.05299 -0.209501,0.98566 -1.223764,1.88495 -2.598937,2.30432 -0.872283,0.26601 -1.92109,0.33156 -2.91065,0.18192 -1.457066,-0.22032 -2.531024,-0.82888 -3.450132,-1.955 -0.189138,-0.23173 -0.267148,-0.40279 -0.384196,-0.8425 -0.158284,-0.59458 -0.273531,-0.78157 -0.559985,-0.90854 -0.318274,-0.14108 -0.778624,-0.19811 -1.828617,-0.22654 -0.423757,-0.0115 -1.12383,-0.0345 -1.555739,-0.0511 -0.431895,-0.0167 -0.940223,-0.0362 -1.129593,-0.0435 l -0.344326,-0.0132 -0.02104,0.12153 c -0.03651,0.21095 -0.219962,0.8302 -0.360863,1.21791 -0.545332,1.50059 -1.561993,3.01479 -2.780356,4.14103 -0.110769,0.1024 -0.207236,0.1968 -0.214368,0.20977 -0.01444,0.0263 0.05967,0.15554 0.32524,0.56669 0.251656,0.38962 3.442845,4.70862 3.566653,4.82716 0.209699,0.20077 0.355761,0.21747 1.436873,0.16429 0.896905,-0.0441 1.84102,0.008 2.77032,0.15397 2.078396,0.32565 3.783726,1.13292 4.646291,2.19945 0.976109,1.20693 0.882611,2.83281 -0.254187,4.41993 -1.123721,1.56886 -2.992699,2.79826 -4.945917,3.25337 -0.831044,0.19364 -1.487553,0.26755 -2.383588,0.26834 -0.888301,7.7e-4 -1.557653,-0.0708 -2.323281,-0.24854 -1.282291,-0.29762 -2.448755,-0.88744 -3.268237,-1.65257 -0.862887,-0.80565 -1.274366,-1.65788 -1.275231,-2.64117 -5.87e-4,-0.69951 0.192228,-1.41876 0.604148,-2.25331 0.197596,-0.40033 0.332648,-0.55611 1.01497,-1.17071 0.486327,-0.43807 0.610928,-0.56698 0.765291,-0.79171 0.25738,-0.37473 0.168837,-0.69318 -0.336285,-1.20946 -0.245655,-0.25108 -0.567118,-0.51429 -1.123474,-0.91991 -0.591459,-0.43121 -0.7539,-0.5544 -2.088087,-1.58368 -0.582973,-0.44975 -1.090111,-0.83978 -1.126983,-0.86674 l -0.067,-0.049 -0.306179,0.12005 c -1.509977,0.59207 -3.465826,1.05819 -5.375037,1.28101 -1.080646,0.12612 -1.87533,0.17489 -3.113473,0.19112 l -0.979881,0.0128 -0.05113,0.62319 c -0.02811,0.34275 -0.15024,1.75039 -0.27138,3.1281 -0.287584,3.27077 -0.379705,4.36686 -0.487141,5.7965 -0.15356,2.04346 -0.187398,2.59443 -0.190702,3.10527 l -0.0029,0.49684 0.09435,0.17101 c 0.146732,0.26595 0.370393,0.50673 0.841248,0.90562 0.121052,0.10255 0.268241,0.22831 0.327092,0.27948 0.169537,0.1474 0.437286,0.44348 0.52868,0.58466 0.374224,0.57801 0.393586,1.32087 0.04773,1.83091 -0.16809,0.24786 -0.332075,0.39619 -0.785215,0.71026 -1.262452,0.87498 -2.109181,1.19901 -3.216703,1.23096 -0.163194,0.005 -0.4034,-4.6e-4 -0.533781,-0.0114 z m 0.861312,-0.0411 c 0.697087,-0.0677 1.373197,-0.29881 2.087192,-0.71337 0.396589,-0.23026 1.103011,-0.71782 1.275336,-0.88021 0.323859,-0.30519 0.473372,-0.62391 0.494784,-1.05475 0.0161,-0.32487 -0.03215,-0.56482 -0.17277,-0.858 -0.155235,-0.32369 -0.361504,-0.54999 -0.97714,-1.072 -0.56875,-0.48226 -0.832634,-0.80946 -0.920017,-1.14077 -0.04087,-0.15504 -0.02249,-0.56958 0.108244,-2.4359 0.123769,-1.76721 0.206965,-2.77866 0.561939,-6.8316 0.121157,-1.3834 0.240949,-2.77145 0.266197,-3.08457 0.02524,-0.31311 0.05311,-0.61697 0.0619,-0.67525 l 0.01599,-0.10595 1.028114,-0.0113 c 1.033965,-0.0113 1.618879,-0.0399 2.450499,-0.11934 2.179518,-0.20833 4.208808,-0.66052 5.941085,-1.32382 0.212827,-0.0815 0.398439,-0.14515 0.412476,-0.14143 0.01407,0.004 0.243747,0.17538 0.510476,0.3815 1.797514,1.3891 2.16477,1.66945 2.582729,1.97168 1.093124,0.79042 1.545302,1.20621 1.742757,1.6025 0.211847,0.42518 0.0659,0.70611 -0.747815,1.43923 -0.482685,0.43489 -0.776228,0.72573 -0.889649,0.88145 -0.120122,0.16492 -0.411354,0.78579 -0.540346,1.15197 -0.385201,1.09346 -0.368268,1.96858 0.05483,2.83144 0.651165,1.32809 2.23534,2.41949 4.164639,2.86919 0.839826,0.19576 1.603614,0.27346 2.503996,0.25475 0.829454,-0.0172 1.491072,-0.10031 2.252111,-0.28275 1.925041,-0.46149 3.773105,-1.69754 4.875465,-3.26087 1.12853,-1.60045 1.194261,-3.20428 0.180473,-4.40333 -1.31362,-1.55369 -4.36612,-2.45988 -7.634015,-2.2663 -0.742845,0.044 -0.904272,0.0213 -1.130068,-0.15875 -0.146503,-0.11684 -3.405022,-4.52982 -3.725751,-5.04576 -0.12444,-0.20016 -0.226242,-0.37486 -0.226242,-0.38821 0,-0.0134 0.100314,-0.11706 0.222906,-0.23046 1.32911,-1.22935 2.363137,-2.82198 2.903704,-4.47232 0.105012,-0.32058 0.251553,-0.85964 0.251553,-0.92532 0,-0.0219 0.01664,-0.0554 0.03702,-0.0745 0.03467,-0.0325 0.105916,-0.0321 1.103834,0.006 0.586731,0.0227 1.423016,0.0504 1.858407,0.0614 1.325775,0.0337 1.817028,0.11075 2.126955,0.33385 0.165275,0.11898 0.273207,0.33309 0.400858,0.79526 0.13577,0.49157 0.206464,0.64725 0.402287,0.88592 0.491876,0.59951 1.1151,1.1135 1.705467,1.40653 1.183001,0.58718 2.804062,0.75219 4.218055,0.42939 0.720673,-0.16453 1.488087,-0.52682 1.966898,-0.92858 0.704842,-0.5914 1.007996,-1.19136 1.005753,-1.99044 -0.0044,-1.6172 -1.290104,-3.15639 -3.043907,-3.64447 -0.931903,-0.25935 -1.907597,-0.26514 -2.99932,-0.0178 -0.942112,0.21344 -1.830699,0.6333 -2.572343,1.21546 -0.164009,0.12875 -0.338205,0.25212 -0.387098,0.27416 -0.178663,0.0806 -0.250432,0.0687 -2.57721,-0.42651 -2.330853,-0.49607 -2.799803,-0.59914 -2.92241,-0.64234 l -0.07679,-0.027 -0.01869,-0.42038 c -0.03995,-0.90079 -0.243387,-1.96535 -0.554477,-2.90137 -0.06458,-0.19436 -0.107456,-0.36036 -0.09525,-0.36888 0.04383,-0.0306 1.443761,-0.36921 5.933625,-1.43522 2.532883,-0.60138 4.869784,-1.18936 6.622982,-1.6664 0.710814,-0.19342 2.639105,-0.76839 3.45226,-1.02939 1.058407,-0.33972 1.570901,-0.41591 1.925294,-0.28624 0.154457,0.0565 0.415264,0.23879 0.776078,0.5424 0.356768,0.3002 0.4834,0.37638 0.943511,0.56759 0.602657,0.25044 1.240265,0.43119 1.794725,0.50875 0.362654,0.0507 1.112952,0.051 1.472923,7.7e-4 1.855553,-0.25989 3.073849,-1.24209 3.073849,-2.47814 0,-0.39534 -0.10503,-0.70343 -0.370395,-1.08642 -0.609145,-0.87918 -1.872303,-1.67275 -3.126664,-1.96431 -0.521334,-0.12117 -0.755011,-0.14751 -1.288697,-0.14521 -0.416796,0.002 -0.509972,0.009 -0.770463,0.058 -0.360265,0.068 -0.824356,0.22032 -1.073683,0.35231 -0.308615,0.16337 -0.586728,0.39507 -1.00837,0.84008 -0.221171,0.23341 -0.462332,0.47943 -0.535929,0.54671 -0.281324,0.25719 -0.624751,0.45577 -0.975735,0.56421 -0.224983,0.0695 -4.714603,0.92669 -7.340906,1.40158 -2.057204,0.37198 -3.842296,0.67391 -5.645088,0.95483 -1.925649,0.30007 -2.340918,0.35399 -3.348533,0.43478 -0.513394,0.0412 -1.153468,0.0985 -1.422389,0.1274 -0.268919,0.029 -0.54228,0.057 -0.607468,0.0624 l -0.118532,0.01 -0.274358,-0.37925 c -0.76027,-1.05094 -1.706804,-2.03108 -2.861722,-2.96329 l -0.143138,-0.11554 0.191357,-0.24578 c 0.105249,-0.13518 0.330809,-0.39879 0.501254,-0.58582 0.170443,-0.18703 0.520254,-0.58225 0.777349,-0.87829 0.257095,-0.29605 0.650982,-0.74786 0.875298,-1.00405 0.224306,-0.25618 0.543988,-0.63348 0.710372,-0.83842 0.473729,-0.5835 0.767131,-0.87933 1.110555,-1.11975 0.23023,-0.16118 0.345712,-0.22499 0.505785,-0.27948 0.201758,-0.0687 0.217137,-0.0706 0.563024,-0.0694 0.390376,0.002 0.528846,0.0209 1.49646,0.2122 0.803929,0.15893 1.003234,0.17833 1.672439,0.16283 1.410349,-0.0327 2.560042,-0.20373 3.498527,-0.52054 1.295485,-0.43733 2.342633,-1.23556 2.838705,-2.16391 0.265187,-0.49628 0.374732,-1.01488 0.315869,-1.49533 -0.147413,-1.20312 -1.057278,-2.26426 -2.514354,-2.93238 -0.997228,-0.45725 -2.335009,-0.7952 -3.692881,-0.93287 -2.353461,-0.23862 -4.486155,0.12391 -5.792091,0.98456 -0.817095,0.53849 -1.340421,1.31442 -1.484423,2.20093 -0.05058,0.31134 -0.02067,0.91866 0.06121,1.24351 0.118671,0.47081 0.332036,0.9253 0.671954,1.43135 0.161353,0.24021 0.189993,0.30009 0.191716,0.40077 0.0015,0.10212 -0.01166,0.13195 -0.0974,0.21713 -0.100863,0.1002 -4.379354,2.98395 -4.871981,3.28378 -0.687963,0.4187 -1.231564,0.73262 -1.268663,0.73262 -0.02243,0 -0.172481,-0.0524 -0.33347,-0.11636 -0.339283,-0.13487 -1.17257,-0.42862 -1.486593,-0.52407 -1.5913,-0.48362 -3.404359,-0.78302 -5.290184,-0.8736 -0.423886,-0.0204 -0.532633,-0.0317 -0.552346,-0.0578 -0.01347,-0.0179 -0.08706,-0.20951 -0.163482,-0.42584 -0.07643,-0.21634 -0.204002,-0.55367 -0.283502,-0.74962 -0.192383,-0.47417 -0.265681,-0.74922 -0.265681,-0.99699 0,-0.27371 0.054,-0.39435 0.231889,-0.51844 0.176852,-0.12331 0.350137,-0.19168 1.018598,-0.40188 0.298342,-0.0938 0.62243,-0.20715 0.720185,-0.25187 0.254391,-0.11637 0.998229,-0.64399 1.280964,-0.90862 0.61467,-0.57529 0.900164,-1.18964 0.857348,-1.84489 -0.100373,-1.53598 -1.794102,-2.7219 -4.156755,-2.91047 -0.624263,-0.0498 -1.432241,0.029 -2.248793,0.21962 -0.38538,0.0899 -1.112429,0.33054 -1.466853,0.48545 -1.273034,0.55642 -2.077117,1.28438 -2.344544,2.1226 -0.02325,0.0729 -0.03941,0.2481 -0.03912,0.42438 3.45e-4,0.25884 0.01165,0.33051 0.08159,0.52045 0.38811,1.05458 1.62299,1.95094 3.364273,2.44203 0.288779,0.0814 0.460313,0.17569 0.509577,0.27995 0.02712,0.0574 0.02712,0.36164 -1.8e-5,1.32977 -0.01932,0.69046 -0.04006,1.26636 -0.04609,1.27981 -0.006,0.0134 -0.07505,0.0304 -0.153426,0.0378 -2.083291,0.19584 -4.210148,0.61945 -6.031406,1.20128 -0.230455,0.0736 -0.439898,0.13333 -0.465437,0.13271 -0.02659,-7.8e-4 -0.267948,-0.22827 -0.565026,-0.53286 -2.441966,-2.50391 -5.487018,-5.40364 -8.058856,-7.67438 -0.399769,-0.35297 -0.862267,-0.7739 -1.027774,-0.9354 -0.831053,-0.81092 -1.248233,-1.46922 -1.304039,-2.05774 -0.03496,-0.36903 0.08491,-0.7113 0.434528,-1.24038 0.480066,-0.72649 0.577991,-0.90259 0.66555,-1.19688 0.114282,-0.38409 5.5e-4,-0.94222 -0.281394,-1.38126 -0.223638,-0.34821 -0.673509,-0.72487 -1.148364,-0.96145 -1.253064,-0.62429 -3.303641,-0.81752 -4.925946,-0.46417 -1.041191,0.22678 -1.775115,0.6542 -2.237121,1.30286 -0.400647,0.56252 -0.818197,1.72532 -0.773601,2.15435 0.06199,0.59642 0.545319,1.21393 1.289427,1.64741 0.459551,0.26771 0.847421,0.41044 1.647212,0.60612 1.371399,0.33555 1.894873,0.52888 2.262526,0.83565 0.299109,0.24958 3.068531,3.50043 6.404997,7.51846 0.47746,0.57499 1.181382,1.42273 1.564274,1.88387 0.382885,0.46113 0.963383,1.15935 1.289994,1.55158 0.326612,0.39224 0.599239,0.73291 0.605845,0.75704 0.0087,0.0319 -0.01898,0.0604 -0.101544,0.10423 -0.210889,0.11205 -0.822462,0.49374 -1.192012,0.74394 -1.454302,0.98464 -2.62099,2.08691 -3.473225,3.28147 -0.142158,0.19926 -0.327958,0.47873 -0.412893,0.62105 -0.08494,0.14233 -0.166252,0.26916 -0.180712,0.28184 -0.01446,0.0127 -0.169502,0.0294 -0.344544,0.0371 -0.175053,0.008 -0.871672,0.0413 -1.548051,0.0745 -0.676373,0.0332 -1.549814,0.0748 -1.940968,0.0924 -0.391161,0.0177 -1.051241,0.0569 -1.466847,0.0873 -0.636438,0.0466 -0.898225,0.0555 -1.659457,0.0567 -0.822069,0.002 -0.929844,-0.003 -1.19166,-0.0433 -0.387548,-0.0602 -0.707031,-0.16993 -0.902758,-0.30999 -0.293336,-0.2099 -0.463698,-0.46161 -0.831515,-1.22857 -0.377902,-0.788 -0.445561,-0.88792 -0.860112,-1.27034 -0.630617,-0.58173 -1.386468,-1.14318 -2.00724,-1.49099 -1.149271,-0.64391 -2.350085,-1.00944 -3.8284505,-1.1654 -0.4047421,-0.0427 -1.5868965,-0.0493 -1.994473,-0.011 -1.50825,0.14137 -2.753917,0.50824 -3.830305,1.12812 -1.1483574,0.66133 -1.98813531,1.58938 -2.34542199,2.59195 -0.31598164,0.88665 -0.22509048,1.91554 0.2675024,3.02828 0.79273979,1.79073 2.47770099,3.28667 4.51546859,4.00888 0.86089,0.30512 1.6881995,0.45616 2.6373522,0.48148 1.2530054,0.0334 2.6719063,-0.21556 3.8697683,-0.67914 0.797612,-0.30866 1.39818,-0.62987 2.101317,-1.12383 0.535807,-0.37642 0.858992,-0.65086 1.21331,-1.03032 0.363115,-0.38887 0.45523,-0.47091 0.601616,-0.53576 0.190661,-0.0845 0.341639,-0.10951 0.564727,-0.0936 0.102739,0.007 1.142865,0.1297 2.311392,0.27197 1.168521,0.14228 2.85134,0.34704 3.739598,0.45504 0.888251,0.108 1.648342,0.20112 1.689091,0.20693 l 0.07408,0.0106 2.93e-4,0.87415 c 2.99e-4,0.69746 0.01107,0.94528 0.0537,1.22607 0.140776,0.92708 0.351782,1.68852 0.690317,2.49106 0.08804,0.20871 0.152243,0.38832 0.142679,0.39914 -0.02418,0.0273 -1.859605,0.98483 -2.561243,1.33615 -2.428549,1.21596 -4.955375,2.36237 -7.541648,3.42159 -1.612413,0.66038 -2.405282,0.86523 -3.070458,0.7933 -0.383488,-0.0415 -0.621574,-0.14279 -1.175613,-0.50028 -0.57761,-0.3727 -0.6480455,-0.40785 -1.1124405,-0.55524 -1.210254,-0.38411 -2.1250408,-0.54513 -3.1017589,-0.54599 -1.9673274,-0.002 -3.8062886,0.77125 -4.5898508,1.92926 -0.3027345,0.44741 -0.4162726,0.78238 -0.4392473,1.29594 -0.021199,0.47383 0.059398,0.83988 0.2716902,1.23387 0.5490192,1.019 2.1112719,2.09465 3.810335,2.62353 1.3646048,0.42477 2.7249692,0.51181 3.8807587,0.2483 1.9168286,-0.43702 3.2723866,-1.81168 3.4347846,-3.48319 0.03379,-0.348 0.0838,-0.43004 0.314207,-0.51566 0.176922,-0.0657 6.83081,-1.46149 9.842762,-2.06467 1.838857,-0.36825 3.121754,-0.6152 5.082235,-0.9783 0.125035,-0.0232 0.246087,-0.0389 0.269003,-0.0351 0.0229,0.004 0.188599,0.12345 0.368174,0.26578 0.380643,0.30168 1.141195,0.83042 1.56541,1.08828 0.397632,0.2417 1.019206,0.58067 1.458876,0.79558 0.2162,0.10568 0.360707,0.1902 0.361779,0.21162 0.0012,0.0196 -0.168238,0.276 -0.37604,0.56978 -0.207803,0.29378 -0.461765,0.66014 -0.564358,0.81414 -0.364736,0.54749 -0.700354,0.86889 -1.047657,1.00328 -0.1524,0.059 -0.172395,0.0612 -0.514163,0.059 -0.28824,-0.002 -0.459446,-0.0174 -0.903811,-0.0818 -0.488881,-0.0709 -0.594724,-0.0795 -0.977896,-0.0795 -1.081858,0 -2.469099,0.27048 -3.234161,0.6308 -1.768059,0.83272 -2.408925,2.33747 -1.538939,3.61341 0.550308,0.80709 1.472743,1.34735 2.841337,1.66413 0.839134,0.19423 1.542658,0.27393 2.420708,0.27424 0.806367,2.3e-4 1.379375,-0.0595 2.036053,-0.21215 1.525885,-0.35486 2.415683,-1.05934 2.679999,-2.12181 0.06578,-0.26445 0.04082,-0.87284 -0.04743,-1.15711 -0.136331,-0.43898 -0.336972,-0.79715 -0.685802,-1.22425 -0.227304,-0.2783 -0.26564,-0.37304 -0.19688,-0.48658 0.0239,-0.0395 0.201348,-0.19748 0.394352,-0.35119 0.193003,-0.15372 0.78344,-0.62417 1.312074,-1.04544 0.528639,-0.42129 0.983412,-0.78256 1.010603,-0.80283 0.0472,-0.0352 0.06003,-0.0334 0.284785,0.0386 1.231484,0.39514 2.519236,0.71726 3.878066,0.97007 0.275872,0.0514 0.510561,0.10053 0.521524,0.10933 0.01095,0.009 0.0356,0.72401 0.05476,1.58935 0.07599,3.42927 0.296081,6.621 0.618142,8.96387 0.1011,0.73549 0.116338,1.76908 0.03098,2.10148 -0.159652,0.62171 -0.478128,1.05306 -1.010071,1.36805 -0.117251,0.0694 -0.546554,0.2803 -0.954013,0.46861 -0.641041,0.29625 -0.780752,0.37061 -1.037168,0.55205 -0.406762,0.28783 -0.610172,0.54423 -0.776641,0.97895 -0.06757,0.1765 -0.07778,0.2439 -0.07778,0.51368 0,0.26898 0.01031,0.33741 0.07698,0.51146 0.15089,0.39385 0.450902,0.75789 0.897997,1.08968 1.084001,0.80446 2.687718,1.26502 3.97079,1.14035 z"
       id="path49"
       inkscape:connector-curvature="0" />
    <flowRoot
       xml:space="preserve"
       id="flowRoot4559"
       style="font-style:normal;font-weight:normal;font-size:96px;line-height:1.25;font-family:sans-serif;letter-spacing:0px;word-spacing:0px;fill:#000000;fill-opacity:1;stroke:none"
       transform="matrix(0.13480994,0,0,0.12109819,-23.967754,215.67648)"><flowRegion
         id="flowRegion4561"
         style="font-size:96px"><rect
           id="rect4563"
           width="397.87866"
           height="117.71989"
           x="299.0253"
           y="355.10101"
           style="font-size:96px" /></flowRegion><flowPara
         id="flowPara4565"
         style="font-style:normal;font-variant:normal;font-weight:normal;font-stretch:ultra-condensed;font-size:96px;font-family:'Bowlby One SC';-inkscape-font-specification:'Bowlby One SC Ultra-Condensed'">  <flowSpan
   style="font-size:96px;fill:#006900;fill-opacity:1"
   id="flowSpan4567" /></flowPara></flowRoot>  </g>
</svg>
