<?xml version="1.0" encoding="UTF-8" standalone="no"?>
<svg
   xmlns:dc="http://purl.org/dc/elements/1.1/"
   xmlns:cc="http://creativecommons.org/ns#"
   xmlns:rdf="http://www.w3.org/1999/02/22-rdf-syntax-ns#"
   xmlns:svg="http://www.w3.org/2000/svg"
   xmlns="http://www.w3.org/2000/svg"
   xmlns:sodipodi="http://sodipodi.sourceforge.net/DTD/sodipodi-0.dtd"
   xmlns:inkscape="http://www.inkscape.org/namespaces/inkscape"
   id="Layer_1"
   data-name="Layer 1"
   viewBox="0 0 290.91 65.27"
   version="1.1"
   sodipodi:docname="logo_black_dollar.svg"
   inkscape:version="0.92.4 (5da689c313, 2019-01-14)">
  <metadata
     id="metadata4742">
    <rdf:RDF>
      <cc:Work
         rdf:about="">
        <dc:format>image/svg+xml</dc:format>
        <dc:type
           rdf:resource="http://purl.org/dc/dcmitype/StillImage" />
        <dc:title>Tuition Relief logo</dc:title>
      </cc:Work>
    </rdf:RDF>
  </metadata>
  <sodipodi:namedview
     pagecolor="#000000"
     bordercolor="#666666"
     borderopacity="1"
     objecttolerance="10"
     gridtolerance="10"
     guidetolerance="10"
     inkscape:pageopacity="1"
     inkscape:pageshadow="2"
     inkscape:window-width="1920"
     inkscape:window-height="1001"
     id="namedview4740"
     showgrid="false"
     inkscape:zoom="6.5919825"
     inkscape:cx="120.11941"
     inkscape:cy="30.336697"
     inkscape:window-x="-9"
     inkscape:window-y="-9"
     inkscape:window-maximized="1"
     inkscape:current-layer="Layer_1" />
  <defs
     id="defs4705">
    <style
       id="style4703">.cls-1{fill:#000;}</style>
  </defs>
  <title
     id="title4707">Tuition Relief logo</title>
  <path
     class="cls-1"
     d="M120.12,40.68a7.6,7.6,0,0,1-4,.93c-4.16,0-6.58-2-6.58-6.2V30h-2.37V25.72h2.37V21.5h5.68v4.22H119V30h-3.72v5.39A1.65,1.65,0,0,0,117,37.21a3.12,3.12,0,0,0,1.74-.51Z"
     id="path4709" />
  <path
     class="cls-1"
     d="M139.36,25.12V41.34H134V39.61a6.43,6.43,0,0,1-4.82,2c-4,0-6.89-2.27-6.89-7.42V25.12h5.69v8.14c0,2.51,1,3.5,2.69,3.5s3.06-1.11,3.06-3.83V25.12Z"
     id="path4711" />
  <path
     class="cls-1"
     d="M142.38,20.3c0-1.7,1.38-3,3.47-3s3.48,1.22,3.48,2.93-1.38,3.11-3.48,3.11S142.38,22,142.38,20.3Zm.63,4.82h5.69V41.34H143Z"
     id="path4713" />
  <path
     class="cls-1"
     d="M163.57,40.68a7.62,7.62,0,0,1-3.95.93c-4.16,0-6.59-2-6.59-6.2V30h-2.36V25.72H153V21.5h5.69v4.22h3.71V30h-3.71v5.39a1.65,1.65,0,0,0,1.71,1.85,3.09,3.09,0,0,0,1.73-.51Z"
     id="path4715" />
  <path
     class="cls-1"
     d="M165.12,20.3c0-1.7,1.38-3,3.47-3s3.48,1.22,3.48,2.93-1.38,3.11-3.48,3.11S165.12,22,165.12,20.3Zm.63,4.82h5.69V41.34h-5.69Z"
     id="path4717" />
  <path
     class="cls-1"
     d="M174.1,33.2c0-4.88,3.86-8.35,9.16-8.35s9.15,3.47,9.15,8.35-3.8,8.41-9.15,8.41S174.1,38.11,174.1,33.2Zm12.57,0c0-2.45-1.47-3.83-3.41-3.83s-3.41,1.38-3.41,3.83,1.49,3.89,3.41,3.89S186.67,35.68,186.67,33.2Z"
     id="path4719" />
  <path
     class="cls-1"
     d="M212.31,32.06v9.28h-5.68V33c0-2.33-1-3.32-2.67-3.32-1.82,0-3.23,1.14-3.23,3.83v7.84H195V25.12h5.42v1.77a7,7,0,0,1,5.15-2C209.41,24.85,212.31,27,212.31,32.06Z"
     id="path4721" />
  <path
     class="cls-1"
     d="M224.94,25.57v2.06c-.18,0-.36,0-.51,0-3.29,0-5.3,2.1-5.3,5.81v8H217V25.69h2v3.08C220,26.68,222,25.57,224.94,25.57Z"
     id="path4723" />
  <path
     class="cls-1"
     d="M242.72,34.22H229.55a5.83,5.83,0,0,0,6.19,5.48,6.2,6.2,0,0,0,4.82-2.07l1.2,1.38a7.77,7.77,0,0,1-6.08,2.57c-4.91,0-8.26-3.35-8.26-8s3.26-8,7.69-8,7.64,3.26,7.64,8C242.75,33.74,242.72,34,242.72,34.22Zm-13.17-1.59h11.16a5.59,5.59,0,0,0-11.16,0Z"
     id="path4725" />
  <path
     class="cls-1"
     d="M247.08,19.22h2.13V41.43h-2.13Z"
     id="path4727" />
  <path
     class="cls-1"
     d="M254.65,20.72a1.54,1.54,0,0,1,1.56-1.5,1.5,1.5,0,0,1,1.55,1.47,1.52,1.52,0,0,1-1.55,1.56A1.54,1.54,0,0,1,254.65,20.72Zm.48,5h2.12V41.43h-2.12Z"
     id="path4729" />
  <path
     class="cls-1"
     d="M276.89,34.22H263.72a5.83,5.83,0,0,0,6.19,5.48,6.2,6.2,0,0,0,4.82-2.07l1.2,1.38a7.77,7.77,0,0,1-6.08,2.57c-4.91,0-8.26-3.35-8.26-8s3.27-8,7.7-8,7.63,3.26,7.63,8C276.92,33.74,276.89,34,276.89,34.22Zm-13.17-1.59h11.16a5.59,5.59,0,0,0-11.16,0Z"
     id="path4731" />
  <path
     class="cls-1"
     d="M283.68,23.83v1.86h4.84v1.79h-4.78v14h-2.13V27.48H278.8V25.69h2.81v-2c0-2.81,1.68-4.67,4.76-4.67a5,5,0,0,1,3.14,1l-.72,1.59a3.56,3.56,0,0,0-2.33-.78C284.63,20.87,283.68,21.89,283.68,23.83Z"
     id="path4733" />
  <path
     class="cls-1"
     d="M84.77,20.09,48.13,5.27a3,3,0,0,0-3-2.75h-3a3,3,0,0,0-3,2.75L2.57,20.09A1.87,1.87,0,0,0,4,23.56L43.67,7.5,83.36,23.56a1.94,1.94,0,0,0,.7.14,1.87,1.87,0,0,0,.71-3.61Z"
     id="path4735"
     style="fill:#85bb65;fill-opacity:1" />
  <path
     class="cls-1"
     d="M 83.25,29.49 44.36,14.14 c -0.444279,-0.170076 -0.935721,-0.170076 -1.38,0 L 4.08,29.49 C 2.4878342,30.152183 2.5527162,32.429539 4.18,33 l 15.18,5 v 9 c 0.0012,0.60995 0.299767,1.180992 0.8,1.53 0.501337,0.354124 1.145671,0.436539 1.72,0.22 13.539389,-5.210186 28.530611,-5.210186 42.07,0 1.22459,0.472908 2.540506,-0.437311 2.53,-1.75 v -9 l 11.579515,-3.941538 0.530949,14.296335 c 0.09253,2.491614 2.286844,2.948401 2.298855,0.455098 L 80.965168,33.064312 83.11,33 c 1.696656,-0.515198 1.790526,-2.882052 0.14,-3.53 z M 62.74,44.42 C 49.88463,40.070338 35.95537,40.070338 23.1,44.42 V 37.6 C 27.05,34.48 34,33 43.8,33.1 c 11.84,0.18 16.84,2.36 18.94,4.34 z M 76.89,31 65.16,34.56 c -3.68,-3.33 -10.67,-5 -21.29,-5.2 -10.79,-0.16 -18.34,1.54 -23,5.22 L 10.3,31.08 43.67,17.89 68.73,27.78 Z m 0,0 c -51.26,22.846664 -25.63,11.423332 0,0 z"
     id="path4737"
     inkscape:connector-curvature="0"
     style="fill:#85bb65;fill-opacity:1"
     sodipodi:nodetypes="cccccccccccccsscccccccccccccccccccc" />
  <path
     style="display:inline;opacity:0.78299997;fill:#ad2121;fill-opacity:0.7263682;stroke-width:0.94089895"
     d="m 73.072695,46.91569 2.79439,-3.187898 h 3.23955 l 0.0139,2.421267 0.95295,0.1189 0.0455,-2.540167 h 2.4303 l 3.28038,3.301752 1.125,15.510748 h -14.625 z"
     id="rect849"
     inkscape:connector-curvature="0"
     sodipodi:nodetypes="ccccccccccc" />
  <path
     d="m 79.809885,60.569256 c -3.33431,0 -5.15478,-2.091629 -5.23143,-3.137442 -0.0767,-1.045814 2.16539,-0.59324 2.17305,0 0.007,0.593239 1.02713,1.779718 3.03538,1.779718 0.89682,0 1.57901,-0.14678 2.04658,-0.440342 0.47524,-0.299678 0.71285,-0.672746 0.71285,-1.119205 0,-0.440343 -0.22995,-0.749194 -0.68986,-0.926555 -0.45991,-0.183476 -1.41038,-0.418937 -2.85141,-0.706384 -1.43337,-0.287446 -2.48349,-0.608529 -3.15035,-0.96325 -0.65919,-0.35472 -0.98879,-0.978538 -0.98879,-1.871457 0,-0.807295 0.41008,-1.473926 1.23024,-1.99989 0.82783,-0.532081 1.9316,-0.798122 3.31131,-0.798122 3.19635,0 4.8635,1.816415 4.89799,2.724622 0.0345,0.908208 -2.12322,0.458691 -2.16154,0 -0.0383,-0.45869 -0.93898,-1.376072 -2.58697,-1.376072 -0.72819,0 -1.33373,0.110085 -1.81662,0.330257 -0.47524,0.220172 -0.71286,0.541255 -0.71286,0.963251 0,0.379184 0.18396,0.654398 0.55188,0.825642 0.36793,0.16513 1.28774,0.391417 2.75944,0.678862 1.47936,0.281331 2.57547,0.611588 3.28832,0.990772 0.72051,0.379184 1.08077,1.033582 1.08077,1.963195 0,0.886802 -0.44457,1.623765 -1.33372,2.210889 -0.88148,0.581007 -2.06958,0.871511 -3.56426,0.871511 z"
     style="font-style:normal;font-variant:normal;font-weight:normal;font-stretch:normal;font-size:24px;line-height:1.25;font-family:'Microsoft Sans Serif';-inkscape-font-specification:'Microsoft Sans Serif, Normal';font-variant-ligatures:normal;font-variant-caps:normal;font-variant-numeric:normal;font-feature-settings:normal;text-align:start;letter-spacing:0px;word-spacing:0px;writing-mode:lr-tb;text-anchor:start;display:inline;fill:#85bb65;fill-opacity:1;stroke:none;stroke-width:0.67409891"
     id="path835"
     inkscape:connector-curvature="0"
     sodipodi:nodetypes="szsscscccscszzscscccscs" />
  <ellipse
     ry="1.1875"
     rx="1.0625"
     cy="46.915291"
     cx="79.642204"
     id="path855"
     style="display:inline;opacity:0.86699997;fill:#782121;fill-opacity:0.7263682;stroke:#cacace;stroke-opacity:1" />
  <path
     sodipodi:nodetypes="zcczzzccsszccccc"
     inkscape:connector-curvature="0"
     id="rect857"
     d="m 79.079425,49.072844 c -0.13301,0.133015 -0.1623,0.858808 -0.1623,0.858808 V 61.18221 c 0,0 0.18762,0.149872 0.31082,0.189352 0.12319,0.03948 0.23436,0.08965 0.3787,0.08115 0.14434,-0.0085 0.4403,-0.231728 0.5406,-0.270503 0.10029,-0.03878 0,0 0,0 l -0.004,-11.892963 c -0.0926,-0.258688 -0.3006,-0.31929 -0.47179,-0.374444 -0.17547,-0.05653 -0.53143,0.113163 -0.75423,0.293293 -0.44017,0.355874 0.29532,-0.268267 0.1623,-0.135251 z m 0.70522,1.338913 v 9.810245 h 0.0915 -0.0915 z"
     style="color:#000000;font-style:normal;font-variant:normal;font-weight:normal;font-stretch:normal;font-size:medium;line-height:normal;font-family:sans-serif;font-variant-ligatures:normal;font-variant-position:normal;font-variant-caps:normal;font-variant-numeric:normal;font-variant-alternates:normal;font-feature-settings:normal;text-indent:0;text-align:start;text-decoration:none;text-decoration-line:none;text-decoration-style:solid;text-decoration-color:#000000;letter-spacing:normal;word-spacing:normal;text-transform:none;writing-mode:lr-tb;direction:ltr;text-orientation:mixed;dominant-baseline:auto;baseline-shift:baseline;text-anchor:start;white-space:normal;shape-padding:0;clip-rule:nonzero;display:inline;overflow:visible;visibility:visible;opacity:0.95700001;isolation:auto;mix-blend-mode:normal;color-interpolation:sRGB;color-interpolation-filters:linearRGB;solid-color:#000000;solid-opacity:1;vector-effect:none;fill:#85bb65;fill-opacity:1;fill-rule:nonzero;stroke:none;stroke-width:0.91268849;stroke-linecap:butt;stroke-linejoin:miter;stroke-miterlimit:4;stroke-dasharray:none;stroke-dashoffset:0;stroke-opacity:1;color-rendering:auto;image-rendering:auto;shape-rendering:auto;text-rendering:auto;enable-background:accumulate" />
</svg>
