<?xml version="1.0" encoding="UTF-8" standalone="no"?>
<svg
   xmlns:dc="http://purl.org/dc/elements/1.1/"
   xmlns:cc="http://creativecommons.org/ns#"
   xmlns:rdf="http://www.w3.org/1999/02/22-rdf-syntax-ns#"
   xmlns:svg="http://www.w3.org/2000/svg"
   xmlns="http://www.w3.org/2000/svg"
   xmlns:sodipodi="http://sodipodi.sourceforge.net/DTD/sodipodi-0.dtd"
   xmlns:inkscape="http://www.inkscape.org/namespaces/inkscape"
   id="Layer_1"
   data-name="Layer 1"
   viewBox="0 0 87.25 61.82"
   version="1.1"
   sodipodi:docname="logo_img_white_stroke_dollar.svg"
   inkscape:version="0.92.4 (5da689c313, 2019-01-14)">
  <metadata
     id="metadata3741">
    <rdf:RDF>
      <cc:Work
         rdf:about="">
        <dc:format>image/svg+xml</dc:format>
        <dc:type
           rdf:resource="http://purl.org/dc/dcmitype/StillImage" />
        <dc:title>Tuition Relief logo</dc:title>
      </cc:Work>
    </rdf:RDF>
  </metadata>
  <sodipodi:namedview
     pagecolor="#000000"
     bordercolor="#666666"
     borderopacity="1"
     objecttolerance="10"
     gridtolerance="10"
     guidetolerance="10"
     inkscape:pageopacity="0"
     inkscape:pageshadow="2"
     inkscape:window-width="1920"
     inkscape:window-height="1001"
     id="namedview3739"
     showgrid="false"
     inkscape:zoom="13.070204"
     inkscape:cx="42.579856"
     inkscape:cy="31.698024"
     inkscape:window-x="-9"
     inkscape:window-y="-9"
     inkscape:window-maximized="1"
     inkscape:current-layer="Layer_1" />
  <defs
     id="defs3730">
    <style
       id="style3728">.cls-1{fill:#231f20;}</style>
  </defs>
  <title
     id="title3732">Tuition Relief logo</title>
  <path
     class="cls-1"
     d="M84.64,18.39,48.08,3.61a3,3,0,0,0-3-2.75h-3a3,3,0,0,0-3,2.75L2.62,18.39A1.87,1.87,0,0,0,4,21.85l39.61-16,39.61,16a1.72,1.72,0,0,0,.7.14,1.87,1.87,0,0,0,.7-3.6Z"
     id="path3734"
     style="fill:#ffffff;fill-opacity:1" />
  <path
     class="cls-1"
     d="M 83.13,27.77 44.31,12.46 c -0.440777,-0.170369 -0.929223,-0.170369 -1.37,0 L 4.12,27.77 c -1.6173051,0.645797 -1.5514494,2.95733 0.1,3.51 l 15.15,5 v 9 c 0.0049,1.295142 1.293066,2.193269 2.51,1.75 13.516107,-5.205575 28.483893,-5.205575 42,0 0.21446,0.07938 0.441321,0.120009 0.67,0.12 1.031168,1.5e-5 1.865544,-0.838847 1.86,-1.87 v -9 l 10.082265,-2.860531 -0.11477,8.914863 c -0.0321,2.493126 1.951092,2.682366 2.056783,0.191275 L 78.396027,32.607253 83,31.3 c 1.696656,-0.515198 1.790526,-2.882052 0.14,-3.53 z M 62.66,42.67 C 49.830393,38.330215 35.929607,38.330215 23.1,42.67 V 35.86 C 27,32.75 34,31.24 43.76,31.38 c 11.81,0.18 16.8,2.35 18.9,4.32 z M 78.453267,29.722488 65.1,32.83 c -3.68,-3.32 -10.66,-5 -21.26,-5.19 -10.76,-0.16 -18.29,1.54 -23,5.21 L 10.28,29.36 43.63,16.2 70.810532,27.064629 Z"
     id="path3736"
     style="fill:#ffffff;fill-opacity:1"
     inkscape:connector-curvature="0"
     sodipodi:nodetypes="cccccccccccccsscccccccccccccccccc" />
  <path
     style="opacity:0;fill:#f9f9f9;fill-opacity:1"
     id="path4652"
     d="m 55.387648,51.059346 c -0.784162,0.01375 -1.551175,0.188812 -2.305036,0.39022 -0.996502,0.280285 -1.928502,0.726571 -2.829143,1.229206 -0.137895,0.07696 0.277111,-0.151523 0.415667,-0.227285 -0.842811,0.492767 -1.581863,1.126829 -2.297381,1.784946 -0.568757,0.537471 -1.129816,1.083593 -1.658887,1.660375 -0.361008,0.396286 -0.70625,0.806913 -1.031093,1.233365 -0.209928,0.254001 -0.362601,0.536872 -0.447242,0.854445 -0.06307,0.313325 -0.08175,0.444801 0.08069,0.730119 0.23514,0.327331 0.616386,0.485995 0.984199,0.617309 0.447942,0.136474 0.917419,0.157013 1.382048,0.171464 0.457815,0.0094 0.915748,0.0045 1.373614,0.0036 0.418965,-0.0096 0.826332,-0.112578 1.217458,-0.256701 0.394804,-0.152875 0.792083,-0.299235 1.188844,-0.446965 0.330476,-0.127403 0.636669,-0.306176 0.966388,-0.435046 0.03963,-0.01265 0.07886,-0.02662 0.118886,-0.03795 0.105464,-0.02986 0.102135,-0.01847 0.201276,-0.05582 0.08615,-0.03245 0.163463,-0.08353 0.244904,-0.125738 -1.755878,0.925502 -0.996915,0.646861 -0.713876,0.372073 0.01617,-0.01569 0.110184,-0.124776 0.120449,-0.136596 0.121865,-0.139468 0.259871,-0.264884 0.377662,-0.40773 0.07195,-0.124029 0.115704,-0.251783 0.213365,-0.359578 0.119634,-0.128778 0.270179,-0.220775 0.421517,-0.307511 0.36765,-0.210712 0.736333,-0.419614 1.1045,-0.629421 0.557569,-0.248864 1.115262,-0.496632 1.68137,-0.72568 0.591139,-0.252963 1.194147,-0.436053 1.829776,-0.529051 0.426372,-0.05591 0.857346,-0.05995 1.286698,-0.05955 0.339424,0.0013 0.678844,0.0021 1.018269,0.0013 0.103562,-0.0036 0.204073,-0.0027 0.306323,0.01286 0,0 -0.924572,0.656116 -0.924572,0.656116 v 0 c -0.0977,-0.0065 -0.195279,-0.0071 -0.293201,-0.0074 -0.336166,-0.0039 -0.672341,-0.0078 -1.008536,-0.0074 -0.42325,0.0029 -0.847866,0.0056 -1.267739,0.06623 -0.621674,0.10094 -1.219585,0.289761 -1.798842,0.537573 -0.574621,0.236095 -1.143273,0.487974 -1.703033,0.757263 0.272747,-0.159036 0.545487,-0.318084 0.818241,-0.477109 0.03993,-0.02328 -0.08006,0.0462 -0.119758,0.06987 -0.104531,0.06233 -0.215131,0.119947 -0.301829,0.206802 -0.135509,0.123884 -0.160438,0.164376 -0.221825,0.343788 -0.101428,0.159924 -0.251846,0.277941 -0.374771,0.420764 -0.06118,0.06347 -0.106514,0.143819 -0.16873,0.20473 -0.322548,0.315785 -0.96969,0.301806 -1.16532,0.7061 -0.180851,0.09188 -0.373796,0.140269 -0.564717,0.206462 -0.322567,0.135953 -0.629258,0.307388 -0.959559,0.42543 -0.396766,0.146964 -0.792587,0.296447 -1.188973,0.444428 -0.400691,0.133232 -0.813487,0.230246 -1.238595,0.226208 -0.458387,0.0019 -0.91691,0.0041 -1.375186,-0.0078 -0.472938,-0.01917 -0.950199,-0.04883 -1.40274,-0.199986 -0.390089,-0.148404 -0.787861,-0.323857 -1.034498,-0.67697 -0.188434,-0.321055 -0.189673,-0.446171 -0.124982,-0.804534 0.07853,-0.33241 0.217765,-0.637607 0.440206,-0.900673 0.327533,-0.435246 0.683038,-0.84887 1.049076,-1.25202 0.530713,-0.583605 1.096872,-1.133102 1.669875,-1.674981 0.719853,-0.665123 1.458251,-1.312955 2.307031,-1.811984 0.462169,-0.270645 0.921802,-0.545669 1.386507,-0.811937 0.896632,-0.513754 1.853358,-0.918221 2.844586,-1.209425 0.782467,-0.206286 1.576469,-0.383098 2.388088,-0.416848 0,0 -0.917445,0.666563 -0.917445,0.666563 z"
     inkscape:connector-curvature="0" />
  <path
     style="display:inline;opacity:0.78299997;fill:#ad2121;fill-opacity:0.7263682;stroke-width:0.94089895"
     d="m 70.552471,45.349321 2.794392,-3.187898 h 3.239548 l 0.01392,2.421267 0.952955,0.1189 0.04552,-2.540167 h 2.430293 l 3.28038,3.301752 1.125,15.510748 h -14.625 z"
     id="rect849"
     inkscape:connector-curvature="0"
     sodipodi:nodetypes="ccccccccccc" />
  <path
     d="m 77.28966,59.002887 c -3.334312,0 -5.154775,-2.091629 -5.231424,-3.137442 -0.07668,-1.045814 2.165383,-0.59324 2.173051,0 0.0072,0.593239 1.027126,1.779718 3.035377,1.779718 0.896816,0 1.579004,-0.14678 2.046576,-0.440342 0.47524,-0.299678 0.71285,-0.672746 0.71285,-1.119205 0,-0.440343 -0.22995,-0.749194 -0.68986,-0.926555 -0.459906,-0.183476 -1.410374,-0.418937 -2.851409,-0.706384 -1.433367,-0.287446 -2.483489,-0.608529 -3.15035,-0.96325 -0.659192,-0.35472 -0.988793,-0.978538 -0.988793,-1.871457 0,-0.807295 0.410084,-1.473926 1.230242,-1.99989 0.827836,-0.532081 1.931602,-0.798122 3.311316,-0.798122 3.196344,0 4.863494,1.816415 4.897984,2.724622 0.0345,0.908208 -2.12322,0.458691 -2.16154,0 -0.0383,-0.45869 -0.938978,-1.376072 -2.586972,-1.376072 -0.728181,0 -1.333721,0.110085 -1.816619,0.330257 -0.475239,0.220172 -0.712854,0.541255 -0.712854,0.963251 0,0.379184 0.183954,0.654398 0.551879,0.825642 0.367925,0.16513 1.287737,0.391417 2.759437,0.678862 1.479359,0.281331 2.575469,0.611588 3.288319,0.990772 0.72051,0.379184 1.08077,1.033582 1.08077,1.963195 0,0.886802 -0.44457,1.623765 -1.33372,2.210889 -0.88148,0.581007 -2.069573,0.871511 -3.56426,0.871511 z"
     style="font-style:normal;font-variant:normal;font-weight:normal;font-stretch:normal;font-size:24px;line-height:1.25;font-family:'Microsoft Sans Serif';-inkscape-font-specification:'Microsoft Sans Serif, Normal';font-variant-ligatures:normal;font-variant-caps:normal;font-variant-numeric:normal;font-feature-settings:normal;text-align:start;letter-spacing:0px;word-spacing:0px;writing-mode:lr-tb;text-anchor:start;display:inline;fill:#ffffff;fill-opacity:1;stroke:none;stroke-width:0.67409891"
     id="path835"
     inkscape:connector-curvature="0"
     sodipodi:nodetypes="szsscscccscszzscscccscs" />
  <ellipse
     ry="1.1875"
     rx="1.0625"
     cy="45.348923"
     cx="77.121979"
     id="path855"
     style="display:inline;opacity:0.86699997;fill:#782121;fill-opacity:0.7263682;stroke:#cacace;stroke-opacity:1" />
  <path
     sodipodi:nodetypes="zcczzzccsszccccc"
     inkscape:connector-curvature="0"
     id="rect857"
     d="m 76.559205,47.506475 c -0.133015,0.133015 -0.162302,0.858808 -0.162302,0.858808 v 11.250558 c 0,0 0.18762,0.149872 0.310817,0.189352 0.123196,0.03948 0.234367,0.08965 0.378704,0.08115 0.144338,-0.0085 0.440302,-0.231728 0.540597,-0.270503 0.100295,-0.03878 0,0 0,0 l -0.0041,-11.892963 c -0.09262,-0.258688 -0.300594,-0.31929 -0.47179,-0.374444 -0.175466,-0.05653 -0.531429,0.113163 -0.754228,0.293293 -0.440174,0.355874 0.295317,-0.268267 0.162302,-0.135251 z m 0.705219,1.338913 v 9.810245 h 0.0915 -0.0915 z"
     style="color:#000000;font-style:normal;font-variant:normal;font-weight:normal;font-stretch:normal;font-size:medium;line-height:normal;font-family:sans-serif;font-variant-ligatures:normal;font-variant-position:normal;font-variant-caps:normal;font-variant-numeric:normal;font-variant-alternates:normal;font-feature-settings:normal;text-indent:0;text-align:start;text-decoration:none;text-decoration-line:none;text-decoration-style:solid;text-decoration-color:#000000;letter-spacing:normal;word-spacing:normal;text-transform:none;writing-mode:lr-tb;direction:ltr;text-orientation:mixed;dominant-baseline:auto;baseline-shift:baseline;text-anchor:start;white-space:normal;shape-padding:0;clip-rule:nonzero;display:inline;overflow:visible;visibility:visible;opacity:0.95700001;isolation:auto;mix-blend-mode:normal;color-interpolation:sRGB;color-interpolation-filters:linearRGB;solid-color:#000000;solid-opacity:1;vector-effect:none;fill:#ffffff;fill-opacity:1;fill-rule:nonzero;stroke:none;stroke-width:0.91268849;stroke-linecap:butt;stroke-linejoin:miter;stroke-miterlimit:4;stroke-dasharray:none;stroke-dashoffset:0;stroke-opacity:1;color-rendering:auto;image-rendering:auto;shape-rendering:auto;text-rendering:auto;enable-background:accumulate" />
</svg>
